<svg xmlns="http://www.w3.org/2000/svg" version="1.1" xmlns:xlink="http://www.w3.org/1999/xlink" xmlns:svgjs="http://svgjs.dev/svgjs" width="1000" height="270" viewBox="0 0 1000 270"><g transform="matrix(1,0,0,1,-0.605984173594095,0.12188245895291061)"><svg viewBox="0 0 396 107" data-background-color="#331e6d" preserveAspectRatio="xMidYMid meet" height="270" width="1000" xmlns="http://www.w3.org/2000/svg" xmlns:xlink="http://www.w3.org/1999/xlink"><defs></defs><g id="tight-bounds" transform="matrix(1,0,0,1,0.23997059477250104,-0.04830094107481386)"><svg viewBox="0 0 395.52 107.09660250814132" height="107.09660250814132" width="395.52"><g><svg viewBox="0 0 530.2544452752273 143.57921104828074" height="107.09660250814132" width="395.52"><g transform="matrix(1,0,0,1,134.7344452752274,19.84343654864083)"><svg viewBox="0 0 395.52 103.89233795099908" height="103.89233795099908" width="395.52"><g><svg viewBox="0 0 395.52 103.89233795099908" height="103.89233795099908" width="395.52"><g><svg viewBox="0 0 395.52 103.89233795099908" height="103.89233795099908" width="395.52"><path d="M394.594 22.283C392.735 11.499 387.435 8.501 387.435 8.501 371.165-2.607 350.86-0.212 332.619 1.384 300.414 1.448 268.339 3.821 236.208 5.093 168.767 5.287 100.749 2.095 33.643 9.968 27.339 12.383-6.54 10.442 1.121 23.663 3.129 29.163 10.456 35.267 10.232 40.314 11.236 41.198 12.631 39.171 13.226 40.443 15.309 43.872 18.711 42.255 21.501 44.282 17.614 49.696 20.403 54.204 23.062 58.927 18.377 60.156 12.371 59.574 9.675 63.65 9.396 66.605 7.89 66.044 6.235 65.915 5.026 65.829 2.59 66.152 2.999 67.08 4.394 70.25-1.594 72.083 2.162 75.189-0.422 78.554 3.948 81.465 3.353 85.11 3.278 85.844 3.687 86.469 4.338 86.642 7.22 87.569 3.018 89.381 3.464 91.344 33.029 104.759 65.104 95.485 95.394 101.653 103.259 97.339 97.346 103.184 100.489 102.279 102.943 101.222 104.728 105.6 107.499 103.12 107.927 102.408 107.276 100.726 108.8 101.049 109.6 101.222 110.307 101.179 110.418 100.186 110.586 98.698 109.117 99.626 108.726 98.849 112.947 94.924 111.906 104.263 115.866 103.875 115.68 102.731 114.528 101.092 116.889 101.308 119.232 99.669 119.306 98.31 121.389 101.998 121.463 102.796 121.835 103.357 122.43 103.745 128.938 99.734 135.409 105.169 142.233 103.357 146.417 101.373 150.433 104.435 154.672 103.68 156.16 103.077 157.666 101.998 159.098 103.81 176.632 104.198 195.319 102.58 211.943 103.875 256.364 101.459 303.835 104.867 350.674 101.675 361.719 100.445 373.192 98.698 383.958 97.296 383.958 97.296 392.679 93.457 392.679 76.203S394.538 61.105 394.817 47.366C395.096 33.628 396.398 33.067 394.538 22.283Z" opacity="1" fill="#ffcf31" data-fill-palette-color="tertiary"></path><g transform="matrix(1,0,0,1,55.76832,26.230666666666668)"><svg width="283.98335999999995" viewBox="1.25 -36 236.0399932861328 42.75" height="51.43100461766574" data-palette-color="#331e6d"><path d="M27.45-2.1Q25.95-1 23.28-0.28 20.6 0.45 16.38 0.45 12.15 0.45 8.35-0.25 4.55-0.95 2.9-1.8 1.25-2.65 1.25-3.45L1.25-3.45Q1.25-6.25 2.05-9.28 2.85-12.3 3.95-12.3L3.95-12.3Q4.15-12.3 8.1-10.95 12.05-9.6 14.05-9.6 16.05-9.6 16.65-10.03 17.25-10.45 17.25-11.25 17.25-12.05 16.15-12.68 15.05-13.3 13.4-13.78 11.75-14.25 9.83-15.15 7.9-16.05 6.25-17.15 4.6-18.25 3.5-20.28 2.4-22.3 2.4-24.9L2.4-24.9Q2.4-36 15.65-36L15.65-36Q20.6-36 24.2-35.38 27.8-34.75 29.28-33.98 30.75-33.2 30.75-32.45L30.75-32.45Q30.75-29.85 29.53-26.85 28.3-23.85 27.15-23.85L27.15-23.85Q26.95-23.85 25.85-24.3L25.85-24.3Q22.55-25.75 20.38-25.75 18.2-25.75 17.43-25.35 16.65-24.95 16.65-24.13 16.65-23.3 17.75-22.78 18.85-22.25 20.48-21.83 22.1-21.4 24.03-20.53 25.95-19.65 27.6-18.48 29.25-17.3 30.35-15.15 31.45-13 31.45-10.15L31.45-10.15Q31.45-7.15 29.9-4.7L29.9-4.7Q28.95-3.2 27.45-2.1ZM33.7-18.65L33.7-18.65Q33.7-23.25 35.07-26.65 36.45-30.05 38.9-32.05L38.9-32.05Q43.75-36 51.35-36L51.35-36Q54.5-36 56.92-35.6 59.35-35.2 61.72-34.08 64.1-32.95 65.6-31.1L65.6-31.1Q69-26.95 69-19.3 69-11.65 66.75-7.23 64.5-2.8 60.45-1.2L60.45-1.2Q62.7 2.5 62.7 3.1L62.7 3.1Q62.7 4.2 61.6 4.98 60.5 5.75 58.8 6.1L58.8 6.1Q55.65 6.75 53.5 6.75 51.35 6.75 50.52 6.33 49.7 5.9 49.15 4.6L49.15 4.6 47 0Q40.9 0 37.3-4.53 33.7-9.05 33.7-18.65ZM49.05-9.78Q49.8-7.4 51.35-7.4 52.9-7.4 53.65-9.78 54.4-12.15 54.4-17.28 54.4-22.4 54-24.63 53.6-26.85 53-27.48 52.4-28.1 51.35-28.1 50.3-28.1 49.7-27.5L49.7-27.5Q48.3-26 48.3-19.07 48.3-12.15 49.05-9.78ZM94.55 0L76.2 0Q73.7 0 72.84-0.28 72-0.55 72-1.2L72-1.2 72-32.3Q72-33.4 74.9-34.48 77.8-35.55 81.4-35.55L81.4-35.55Q84.59-35.55 85.59-34.2L85.59-34.2Q85.95-33.7 85.95-33.2L85.95-33.2 85.95-11.05Q92.05-11.45 95.15-11.45L95.15-11.45Q96.2-11.45 96.2-8.13 96.2-4.8 95.75-2.4 95.3 0 94.55 0L94.55 0ZM110.04 0.4L110.04 0.4Q108.34 0.4 106.89 0.05 105.44-0.3 103.87-1.43 102.29-2.55 101.19-4.4L101.19-4.4Q98.69-8.6 98.69-17.05L98.69-17.05Q98.69-21.7 99.94-25.25 101.19-28.8 103.09-30.78 104.99-32.75 107.64-34 110.29-35.25 112.59-35.63 114.89-36 117.49-36L117.49-36Q123.49-36 125.94-34.98 128.39-33.95 128.39-31.05L128.39-31.05Q128.39-28.75 127.54-26.08 126.69-23.4 125.04-23.4L125.04-23.4Q124.64-23.4 121.64-24.18 118.64-24.95 117.14-24.95L117.14-24.95Q112.84-24.95 112.84-17.7L112.84-17.7Q112.84-14.05 113.84-12.28 114.84-10.5 116.34-10.3L116.34-10.3 116.34-14.8Q116.34-16.05 118.89-17.1 121.44-18.15 123.79-18.15 126.14-18.15 127.22-17.85 128.29-17.55 128.69-17L128.69-17Q129.39-16.1 129.39-15.4L129.39-15.4 129.39-1.55Q129.39-0.9 126.77-0.5 124.14-0.1 121.32-0.1 118.49-0.1 117.74-0.38 116.99-0.65 116.89-1.9L116.89-1.9 116.54-4.85 116.14-4.85Q115.79-2.7 114.37-1.15 112.94 0.4 110.04 0.4ZM165.19-13.95Q165.19-6.75 161.07-3.18 156.94 0.4 149.12 0.4 141.29 0.4 137.09-3.18 132.89-6.75 132.89-13.95L132.89-13.95 132.89-32.3Q132.89-33.55 135.72-34.55 138.54-35.55 142.29-35.55L142.29-35.55Q145.29-35.55 146.19-34.4L146.19-34.4Q146.84-33.5 146.84-32.85L146.84-32.85 146.84-17.95Q146.84-12.3 147.27-10.48 147.69-8.65 149.09-8.65 150.49-8.65 150.87-10.43 151.24-12.2 151.24-18L151.24-18 151.24-32.3Q151.24-33.55 154.07-34.55 156.89-35.55 160.59-35.55L160.59-35.55Q163.74-35.55 164.59-34.4L164.59-34.4Q165.19-33.5 165.19-32.85L165.19-32.85 165.19-13.95ZM183.19-11.7L183.19-1.45Q183.19-0.8 180.14-0.4 177.09 0 174.01 0 170.94 0 170.06-0.35 169.19-0.7 169.19-1.45L169.19-1.45 169.19-33.6Q169.19-34.9 172.46-35.45 175.74-36 180.74-36 185.74-36 187.21-35.98 188.69-35.95 190.69-35.8 192.69-35.65 193.86-35.3 195.04-34.95 196.46-34.4 197.89-33.85 198.69-32.98 199.49-32.1 200.24-30.9L200.24-30.9Q201.59-28.75 201.59-24.78 201.59-20.8 200.26-18.07 198.94-15.35 196.74-13.95L196.74-13.95Q202.49-4.9 202.49-2.45 202.49 0 192.64 0L192.64 0Q189.79 0 188.69-0.25 187.59-0.5 187.29-1.35L187.29-1.35 184.04-11.65 183.19-11.7ZM183.19-28.1L183.19-19.4 184.49-19.4Q187.39-19.4 187.39-23.9L187.39-23.9Q187.39-26.2 186.61-27.15 185.84-28.1 184.84-28.1L184.84-28.1 183.19-28.1ZM237.29-13.95Q237.29-6.75 233.16-3.18 229.04 0.4 221.21 0.4 213.39 0.4 209.19-3.18 204.99-6.75 204.99-13.95L204.99-13.95 204.99-32.3Q204.99-33.55 207.81-34.55 210.64-35.55 214.39-35.55L214.39-35.55Q217.39-35.55 218.29-34.4L218.29-34.4Q218.94-33.5 218.94-32.85L218.94-32.85 218.94-17.95Q218.94-12.3 219.36-10.48 219.79-8.65 221.19-8.65 222.59-8.65 222.96-10.43 223.34-12.2 223.34-18L223.34-18 223.34-32.3Q223.34-33.55 226.16-34.55 228.99-35.55 232.69-35.55L232.69-35.55Q235.84-35.55 236.69-34.4L236.69-34.4Q237.29-33.5 237.29-32.85L237.29-32.85 237.29-13.95Z" opacity="1" transform="matrix(1,0,0,1,0,0)" fill="#331e6d" class="undefined-text-0" data-fill-palette-color="quaternary" id="text-0"></path></svg></g></svg></g></svg></g></svg></g><g><svg viewBox="0 0 122.59281942910734 143.57921104828074" height="143.57921104828074" width="122.59281942910734"><g><svg xmlns="http://www.w3.org/2000/svg" xmlns:xlink="http://www.w3.org/1999/xlink" version="1.1" x="0" y="0" viewBox="13.109577178955078 6.794693470001221 73.78115844726562 86.41159057617188" enable-background="new 0 0 100 100" xml:space="preserve" height="143.57921104828074" width="122.59281942910734" class="icon-icon-0" data-fill-palette-color="accent" id="icon-0"><path d="M71.22 25.581c-0.998-2.494-3.157-7.657-8.298-10.967-3.147-1.597-6.588-2.494-9.687-2.987-0.491-0.028-0.996-0.043-1.514-0.043-1.603 0-3.334 0.139-5.205 0.445 0 0-0.022-0.001-0.068-0.001-0.489 0-3.683 0.143-12.454 3.432-9.607 3.603-10.122 11.151-10.293 13.209-0.172 2.058-3.431 5.489-3.774 6.519-0.343 1.029 1.029 14.753 2.574 22.301 1.543 7.547 1.887 5.317 5.146 11.474 1.473 2.782 2.246 4.066 3.125 4.421 0.048-1.104 0.051-3.623-0.724-5.946-1.029-3.088 1.373-3.946 2.91-6.177 0.678-0.982 2.327-1.26 3.958-1.26 2.069 0 4.111 0.438 4.111 0.438s4.157-2.052 7.846-2.052c0.484 0 0.96 0.019 1.418 0.099 3.946 0.687 7.377 1.02 6.519 8.051C56.354 70.273 56.963 72 57.813 72c0.004 0 0.006 0 0.008 0l2.248-2.566c0 0-0.688-3.271 2.916-5.673 3.602-2.402 4.803-3.007 6.689-10.063 1.888-7.054 1.03-10.724 1.545-12.268C71.733 39.886 72.935 29.869 71.22 25.581zM28.128 44.047c-0.441 0 0.459-1.58 2.393-2.354-0.079 0.244-0.123 0.502-0.123 0.772 0 0.955 0.535 1.784 1.321 2.206C29.662 44.772 28.44 44.047 28.128 44.047zM32.857 43.344c-0.368 0-0.667-0.298-0.667-0.667 0-0.369 0.299-0.667 0.667-0.667s0.667 0.298 0.667 0.667C33.523 43.045 33.225 43.344 32.857 43.344zM41.124 32.654c0.688 0 1.246 0.558 1.246 1.246 0 0.688-0.558 1.246-1.246 1.246s-1.246-0.558-1.246-1.246C39.877 33.211 40.436 32.654 41.124 32.654zM35.278 41.686c1.254 0.397 2.106 0.936 2.106 0.936-0.875 0.564-1.69 0.985-2.447 1.294 0.292-0.41 0.466-0.91 0.466-1.451C35.404 42.192 35.359 41.931 35.278 41.686zM49.773 55.014c-0.136 0.257-0.329 0.472-0.53 0.669-0.405 0.397-0.865 0.723-1.34 1.013-0.475 0.291-0.963 0.562-1.47 0.792-0.504 0.233-1.02 0.444-1.546 0.635-0.264 0.098-0.531 0.185-0.805 0.258-0.136 0.04-0.274 0.074-0.415 0.109-0.147 0.035-0.291 0.068-0.419 0.093-0.309 0.05-0.621 0.096-0.936 0.093-0.158 0.009-0.314-0.005-0.471-0.017-0.158-0.007-0.313-0.03-0.467-0.058-0.156-0.021-0.307-0.061-0.457-0.102-0.152-0.037-0.299-0.085-0.444-0.138-0.293-0.1-0.573-0.229-0.845-0.367-0.271-0.142-0.531-0.301-0.78-0.478-0.141-0.1-0.271-0.196-0.403-0.305-0.082 0.009-0.164 0.021-0.247 0.028-0.117 0.002-0.24-0.003-0.359-0.005-0.125-0.011-0.232 0.003-0.371-0.032-0.132-0.027-0.264-0.056-0.396-0.089-0.132-0.037-0.276-0.114-0.41-0.178-0.137-0.057-0.264-0.172-0.389-0.275-0.131-0.1-0.227-0.231-0.32-0.366-0.102-0.133-0.159-0.272-0.216-0.413-0.066-0.145-0.092-0.278-0.121-0.415-0.035-0.142-0.042-0.267-0.051-0.396-0.013-0.133-0.006-0.251-0.002-0.373 0.009-0.243 0.045-0.468 0.089-0.69 0.022-0.111 0.05-0.218 0.079-0.327 0.032-0.112 0.061-0.204 0.113-0.344l0.006-0.019 0.023-0.049 0.433-0.941c0.151-0.311 0.272-0.637 0.407-0.957 0.128-0.323 0.275-0.638 0.388-0.969l0.363-0.982c0.12-0.328 0.225-0.663 0.337-0.995 0.114-0.332 0.227-0.664 0.326-1.001 0.211-0.67 0.414-1.345 0.611-2.023 0.101-0.338 0.186-0.681 0.279-1.022l0.271-1.026c0.187-0.685 0.349-1.375 0.517-2.067 0.175-0.69 0.328-1.386 0.49-2.082l0.471-2.099c0.037 0.719 0.035 1.441 0.013 2.16-0.017 0.721-0.071 1.438-0.122 2.158-0.024 0.36-0.072 0.716-0.107 1.076-0.036 0.359-0.084 0.716-0.129 1.075-0.042 0.359-0.094 0.716-0.158 1.072-0.062 0.356-0.115 0.714-0.185 1.069l-0.206 1.067c-0.069 0.356-0.163 0.707-0.244 1.061-0.081 0.354-0.168 0.706-0.271 1.056-0.1 0.35-0.192 0.702-0.3 1.05l-0.34 1.042c-0.107 0.348-0.252 0.687-0.378 1.031-0.129 0.343-0.259 0.686-0.416 1.02L37.5 53.987c-0.013 0.036-0.037 0.116-0.056 0.179-0.019 0.069-0.039 0.142-0.053 0.212-0.029 0.141-0.053 0.281-0.058 0.409-0.002 0.063-0.009 0.13-0.001 0.182 0.004 0.057 0.003 0.116 0.017 0.154 0.01 0.045 0.013 0.095 0.032 0.118 0.012 0.029 0.019 0.066 0.038 0.076 0.012 0.017 0.015 0.046 0.04 0.051 0.021 0.012 0.019 0.041 0.06 0.047 0.035 0.01 0.05 0.036 0.095 0.049 0.049 0.009 0.098 0.021 0.146 0.036 0.041 0.022 0.122 0.01 0.181 0.018l0.196 0.014c0.149-0.017 0.298-0.028 0.449-0.036l0.487-0.026 0.259 0.277c0.118 0.126 0.318 0.306 0.497 0.443 0.185 0.147 0.383 0.277 0.583 0.4 0.202 0.121 0.409 0.234 0.623 0.323 0.106 0.047 0.213 0.093 0.323 0.125 0.108 0.04 0.218 0.074 0.329 0.1 0.11 0.032 0.221 0.061 0.333 0.076 0.112 0.02 0.224 0.043 0.337 0.045 0.227 0.026 0.453 0.013 0.683 0.001 0.14-0.014 0.262-0.03 0.38-0.046 0.124-0.019 0.252-0.037 0.378-0.062 0.253-0.045 0.509-0.101 0.766-0.151 0.512-0.112 1.023-0.245 1.528-0.401 0.503-0.16 1.01-0.32 1.499-0.52 0.488-0.201 0.972-0.418 1.415-0.695 0.219-0.142 0.427-0.298 0.601-0.486 0.173-0.186 0.296-0.431 0.241-0.706 0.059 0.123 0.09 0.268 0.07 0.413C49.892 54.747 49.845 54.889 49.773 55.014zM49.49 40.842c0 0 1.087-2.854 3.975-3.574-0.603 0.457-0.993 1.178-0.993 1.993 0 0.857 0.432 1.613 1.088 2.064C52.429 41.298 51.089 41.156 49.49 40.842zM54.962 40.041c-0.386 0-0.699-0.312-0.699-0.698 0-0.386 0.313-0.699 0.699-0.699s0.699 0.313 0.699 0.699C55.661 39.728 55.348 40.041 54.962 40.041zM56.778 40.992c0.433-0.45 0.698-1.06 0.698-1.731 0-0.837-0.411-1.576-1.042-2.03 2.509 0.416 3.024 1.742 3.024 1.742S59.121 40.34 56.778 40.992z" fill="#ffcf31" data-fill-palette-color="accent"></path><path d="M86.624 53.617c-0.01 0.086-0.016 0.173-0.025 0.259C86.616 53.72 86.623 53.645 86.624 53.617z" fill="#ffcf31" data-fill-palette-color="accent"></path><path d="M86.883 48.421c-0.015-0.652-0.053-1.29-0.108-1.92C85.791 42.549 84.37 38 82.626 32.421c-0.618-1.974-1.317-4.211-2.054-6.61-2.365-7.702-7.798-13.279-16.15-16.579-7.185-2.838-11.233-2.415-11.985-2.415-0.052 0-2.712 2.044-2.712 2.044s-1.552-1.747-1.885-1.747l-1.485-0.057c-0.623 0-2.954 0.127-8.168 2.031-7.315 2.671-12.25 6.773-14.666 12.283-1.522 3.473-2.856 7.277-4.021 11.197 0.087-0.121 0.18-0.258 0.277-0.391 0.755-1.029 2.159-2.948 2.227-3.772l0.006-0.076c0.587-7.099 4.435-12.032 11.436-14.657 8.367-3.138 11.855-3.53 13.01-3.545 1.852-0.295 3.65-0.446 5.348-0.446 6.352 0 11.589 2.049 15.566 6.091 3.315 3.369 4.901 7.333 5.579 9.025 1.906 4.767 0.652 15.161 0.035 17.007-0.091 0.274-0.105 1.079-0.12 1.857-0.039 2.153-0.101 5.409-1.393 10.241-1.867 6.98-3.226 8.171-6.877 10.587-0.175 0.117-0.357 0.237-0.545 0.362-2.523 1.682-2.175 3.812-2.158 3.901 0.116 0.562-0.055 1.156-0.458 1.578l-2.247 2.356c-0.334 0.351-0.804 0.552-1.288 0.552-0.727 0-1.403-0.312-1.903-0.876-0.991-1.12-1.27-3.146-0.876-6.374 0.586-4.795-0.702-5.002-4.141-5.558-0.301-0.048-0.607-0.098-0.916-0.151l-0.211-0.038c-0.335-0.06-0.648-0.115-0.902-0.115-3.213-0.001-7.034 1.815-7.073 1.834-0.237 0.114-0.505 0.176-0.773 0.176-0.132 0-0.263-0.014-0.39-0.043-0.017-0.004-1.896-0.415-3.722-0.415-2.09 0-2.49 0.477-2.494 0.482-0.516 0.747-1.089 1.34-1.594 1.863-1.245 1.287-1.457 1.636-1.09 2.732 0.403 1.208 0.663 2.571 0.773 4.052 0.001 0.009 0.179 0.017 0.179 0.023L33 72.177c0 0.008 0 0.016 0 0.023 0 0.387-0.18 0.771-0.197 1.144-0.025 0.575-0.419 1.105-0.903 1.417-0.288 0.187-0.666 0.284-1.008 0.284-0.229 0-0.475-0.044-0.687-0.13-1.449-0.582-2.353-2.045-4.044-5.239-1.061-2.005-1.792-3.062-2.376-3.91-1.236-1.803-1.858-2.707-2.95-8.042-0.691-3.378-1.448-8.521-2.021-13.757-0.363-3.316-0.533-5.442-0.599-6.819-2.528 9.634-4.112 19.246-5.067 25.136-0.005 1.111-0.021 2.224-0.029 3.335-0.017 2.076-0.028 4.16 0.125 6.232 0.038 0.508 0.075 1.017 0.131 1.522 0.014 0.125 0.024 0.221 0.032 0.299 0.012 0.062 0.024 0.133 0.039 0.218 0.145 0.821 0.302 1.643 0.526 2.445 0.134 0.481 0.267 0.963 0.434 1.434 0.039 0.111 0.478 1.133 0.348 0.891 0.39 0.804 0.813 1.593 1.322 2.329 0.147 0.214 0.232 0.345 0.274 0.418 0.042 0.048 0.089 0.1 0.144 0.162 0.369 0.424 0.738 0.848 1.141 1.237 0.447 0.435 0.917 0.829 1.402 1.219 0.466 0.365 0.614 0.484 0.449 0.364 1.814 1.364 3.688 2.659 5.662 3.785 0.93 0.529 1.869 1.043 2.833 1.507 0.466 0.225 0.933 0.448 1.407 0.655 0.029 0.013 0.049 0.022 0.075 0.032 1.813 0.717 3.667 1.337 5.564 1.788 0.921 0.219 1.846 0.422 2.779 0.577 0.171 0.029 1.198 0.173 0.888 0.142 0.137 0.016 0.273 0.034 0.411 0.049 3.167 0.326 6.353 0.354 9.529 0.164 0.244-0.078 0.488-0.152 0.731-0.231 1.962-0.64 3.912-1.32 5.836-2.066 0.81-0.315 1.621-0.629 2.424-0.96 0.072-0.038 0.951-0.424 0.98-0.438 0.486-0.226 0.972-0.451 1.451-0.689 2.016-1.006 3.987-2.105 5.86-3.356 0.842-0.562 1.678-1.136 2.484-1.747 0.07-0.053 0.127-0.097 0.179-0.136 0.065-0.054 0.155-0.129 0.275-0.227 0.388-0.318 0.775-0.636 1.152-0.964 1.634-1.422 3.199-2.928 4.648-4.539 0.675-0.75 1.34-1.51 1.973-2.295 0.048-0.06 0.636-0.818 0.631-0.802 0.226-0.3 0.452-0.6 0.67-0.905 2.493-3.48 5.197-7.855 6.423-11.238 0.904-2.497 1.643-5.063 2.087-7.685-0.008 0.047 0.188-1.337 0.185-1.192 0.058-0.52 0.115-1.039 0.15-1.561C86.856 50.848 86.912 49.634 86.883 48.421zM43.234 73.156l-2.356-4.165 3.891-0.657L43.234 73.156zM48.877 64.659c-0.345 0.233-0.908 0.585-1.629 0.938-1.269 0.622-3.279 1.362-5.646 1.362-1.523 0-3.026-0.305-4.465-0.904-0.236-0.099-0.369-0.365-0.316-0.616C36.873 65.192 37.091 65 37.343 65h0.009c0.002 0 0.103 0.017 0.28 0.017 0.759 0 3.401-0.023 5.509-0.433 2.286-0.444 5.124-1.096 5.713-1.232 0.072-0.047 0.164-0.083 0.288-0.083 0.141 0 0.276 0.058 0.377 0.157 0.099 0.1 0.156 0.236 0.156 0.377C49.674 64.095 49.543 64.21 48.877 64.659z" fill="#ffcf31" data-fill-palette-color="accent"></path></svg></g></svg></g></svg></g></svg><rect width="395.52" height="107.09660250814132" fill="none" stroke="none" visibility="hidden"></rect></g></svg></g></svg>